<svg id="Layer_1" data-name="Layer 1" xmlns="http://www.w3.org/2000/svg" viewBox="0 0 285.5 103"><defs><style>.cls-1{fill:#ffcafd;}.cls-2{fill:#da9300;}</style></defs><title>logo_negativo</title><path class="cls-1" d="M101.36,5.35c-6-6.28-21.48-1.93-39.22,9.72-3.22,2.05-5.05,3.29-8.47,5.8,3.55,2.53,5.32,3.88,8.77,6.8,3.53-3.09,5.27-4.57,8.65-7.36a63.93,63.93,0,0,0-8-5.33c14.59-8.75,27-11.65,32.08-6.32C100.12,13.81,97,25.45,88.31,39A60,60,0,0,0,83,31.73c-2.8,3.41-4.28,5.17-7.4,8.73,2.72,3.05,4.13,4.77,6.29,7.64a159.72,159.72,0,0,1-11.74,13.4C67.66,58.86,66,57.15,63,54.09q-4.47,4.65-9.13,9.12c3,2.89,4.68,4.53,7.2,6.9A159.23,159.23,0,0,1,47,81.34c-2.35-1.8-4-3.19-6.72-5.61-3.57,3.12-5.33,4.6-8.74,7.4a60.06,60.06,0,0,0,5.81,4.37C23.64,95.33,12.12,97.73,7.27,92.65,2.08,87.22,5.79,74.56,15.65,60,4.08,76.51-.46,91,5.34,97.07,14,106.16,42.56,93,69.07,67.67S110,14.44,101.36,5.35Z"/><path class="cls-1" d="M40.27,54C36.75,57.66,35,59.46,31.77,63c3.12,3.46,4.82,5.21,8.21,8.42,3.55-3.29,5.36-5,9-8.54C45.48,59.41,43.67,57.58,40.27,54Z"/><path class="cls-1" d="M62.7,49.16c3.54-3.65,5.26-5.47,8.55-9-3.21-3.39-5-5.09-8.41-8.22-3.52,3.28-5.32,5-9,8.5C57.43,43.83,59.26,45.64,62.7,49.16Z"/><path class="cls-1" d="M20.14,71.22c2.79-3.38,4.27-5.11,7.37-8.65a110.46,110.46,0,0,1-6.8-8.78c-2.65,3.61-3.88,5.43-6.15,9A65.08,65.08,0,0,0,20.14,71.22Z"/><path class="cls-1" d="M31.75,40.4c3.15,3.42,4.79,5.17,8.18,8.7q4.42-4.6,9-9c-3.53-3.39-5.27-5-8.69-8.18C36.75,35.13,35,36.9,31.75,40.4Z"/><path class="cls-2" d="M22.4,51.54c2.64,3.55,4.06,5.33,7.06,8.82,3.17-3.56,4.83-5.37,8.28-9-3.32-3.54-4.93-5.3-8-8.77C26.62,46.13,25.15,47.93,22.4,51.54Z"/><path class="cls-2" d="M65.25,51.79c2.95,3.08,4.56,4.8,7,7.5,2.81-3,5.43-6,7.83-8.94-2.23-2.85-3.7-4.58-6.47-7.65C70.41,46.3,68.74,48.13,65.25,51.79Z"/><path class="cls-2" d="M37.71,29.56c-3.38-3.08-5-4.56-8.23-7.37A58.49,58.49,0,0,0,22,29.61c2.81,3.2,4.29,4.86,7.36,8.24A103.57,103.57,0,0,1,37.71,29.56Z"/><path class="cls-2" d="M9,51.27a74.21,74.21,0,0,0,4.09,8.92c2.1-3.62,3.24-5.44,5.74-9.06-2.41-3.56-3.51-5.35-5.55-8.89A70.57,70.57,0,0,0,9,51.27Z"/><path class="cls-2" d="M60.06,13.29a74.9,74.9,0,0,0-8.91-4.1,71.34,71.34,0,0,0-9,4.29c3.53,2,5.33,3.14,8.89,5.55C54.61,16.53,56.44,15.38,60.06,13.29Z"/><path class="cls-2" d="M42.53,73.76c2.78,2.52,4.46,4,6.86,5.86,3.11-2.28,6.26-4.79,9.42-7.49-2.51-2.28-4.23-3.89-7.18-6.72C48,68.89,46.12,70.56,42.53,73.76Z"/><path class="cls-2" d="M51.61,42.65q-4.61,4.5-9.11,9.11c3.45,3.55,5.27,5.39,8.8,8.87q4.64-4.53,9.18-9.18C57,47.92,55.16,46.1,51.61,42.65Z"/><path class="cls-2" d="M73.28,37.94c3.22-3.5,4.77-5.22,7.7-8.53a60.8,60.8,0,0,0-7.48-7.18c-3.29,2.93-5,4.47-8.48,7.67A108.65,108.65,0,0,1,73.28,37.94Z"/><path class="cls-2" d="M29.74,65.16c-3.21,3.48-4.76,5.18-7.68,8.47a61.09,61.09,0,0,0,7.17,7.48c3.32-2.93,5-4.47,8.54-7.69A108.94,108.94,0,0,1,29.74,65.16Z"/><path class="cls-2" d="M141.25,80.72V72.6q0-1.66-2.55-2.16a24.29,24.29,0,0,0-3.82-.2h-7.17q-6.11,0-6.11,2.46V83.29h14.35Q141.25,83.29,141.25,80.72Zm4.64-.07q0,6.48-9.94,6.48H121.6v4.25a1.45,1.45,0,0,1-.94,1.55,6.57,6.57,0,0,1-2,.15,1.5,1.5,0,0,1-1.7-1.7V72.6a5.28,5.28,0,0,1,3.62-5.28q2.09-.94,6.89-.94h7.33q11.06,0,11.06,6.15Z"/><path class="cls-2" d="M178.39,80.72a6.85,6.85,0,0,1-.68,3.34q-1.81,3.25-10.95,3.25H150a1.5,1.5,0,0,1-1.68-1.72,3.59,3.59,0,0,1,.26-1.64,1.5,1.5,0,0,1,1.42-.63h16.77q6.78,0,6.78-2.51V78.51q0-2.44-6.56-2.66l-8-.26-1.61-.06-2.53-.17a9,9,0,0,1-4.49-1.72,5,5,0,0,1-2.05-4.12v-2q0-4.64,5.15-6.13a42.61,42.61,0,0,1,9-.63q1.7,0,1.7,2.22a1.49,1.49,0,0,1-1,1.61,11,11,0,0,1-2.07.09q-7.94,0-7.94,2.79v1.85q0,1.72,3,2.25a13.55,13.55,0,0,0,1.63.17q1.09,0,2.66,0h6.48a18.33,18.33,0,0,1,7.33,1.2q4.23,1.75,4.23,5.36Z"/><path class="cls-2" d="M210.1,85.58q0,1.72-2.14,1.72h-17a19.19,19.19,0,0,1-7.07-.94A5.38,5.38,0,0,1,180.15,81V72.73q0-6.35,9.81-6.35H208.2q1.79,0,1.79,1.94t-1.79,1.94h-17.9q-5.54,0-5.54,2.33v8.18q0,2.66,6.3,2.66h17.32Q210.1,83.44,210.1,85.58Z"/><path class="cls-2" d="M238.49,79.93c0-.2,0-.46,0-.76s0-.66,0-1.07,0-.76,0-1.07v-.76H222.07a9.12,9.12,0,0,0-3,.52q-2,.68-2,1.77V81.2q0,1.16,2.05,1.77a8.76,8.76,0,0,0,3,.48h11.43a8.49,8.49,0,0,0,3.53-.5Q238.49,82.26,238.49,79.93ZM243,81q0,6.28-9.42,6.28H222.33A13.75,13.75,0,0,1,216.07,86q-3.55-1.7-3.56-4.73V78.58q0-3.27,3.38-4.91a13.88,13.88,0,0,1,6.28-1.26h16.27q-.37-2.2-6.24-2.2l-.59,0-.76,0a.53.53,0,0,1-.22,0h-1.09q-1.7,0-1.7-2.16a1.51,1.51,0,0,1,1.7-1.72,35.46,35.46,0,0,1,8.44.76q5,1.42,5,5.67Z"/><path class="cls-2" d="M250.9,85.58a1.51,1.51,0,0,1-1.7,1.72,6.57,6.57,0,0,1-2-.15,1.49,1.49,0,0,1-.94-1.57V62.44a1.5,1.5,0,0,1,1.7-1.7,8.57,8.57,0,0,1,2,.13,1.45,1.45,0,0,1,.92,1.57Z"/><path class="cls-2" d="M278,75.11V72.54q0-2.35-9.35-2.35a47.75,47.75,0,0,0-7.57.39q-2.9.55-2.9,2.14v2.4Zm4.49,2.09q0,1.9-1.29,1.9H258.34v.15q0,3,3.49,3.82a15.85,15.85,0,0,0,2.2.28q1.46.09,3.71.09,1.7,0,1.7,2.14a1.51,1.51,0,0,1-1.7,1.72q-2.31,0-3.8,0t-2.22-.11a11,11,0,0,1-5.58-1.79,5.8,5.8,0,0,1-2.55-4.67V73q0-3.62,3.92-5.37a16.83,16.83,0,0,1,7.11-1.27h8.59a13.28,13.28,0,0,1,6,1.2q3.29,1.53,3.29,4.6Z"/><path class="cls-2" d="M112.07,60.74a9.52,9.52,0,0,0-2.09.13,1.44,1.44,0,0,0-1,1.57V79.52q0,2.57-3.08,3.38a20.34,20.34,0,0,1-5.12.41H94.08q-1.7,0-3-.11A15.3,15.3,0,0,1,89,82.87q-3.07-.85-3.07-3.38V63.79L81,68.66V79.82a7.7,7.7,0,0,0,.72,3.64Q83.8,87.3,94,87.3H95.1l1.53,0,1.53,0,1.11,0q14.5,0,14.5-7.57V62.44A1.5,1.5,0,0,0,112.07,60.74Z"/></svg>