<svg id="Layer_1" data-name="Layer 1" xmlns="http://www.w3.org/2000/svg" viewBox="0 0 285.5 118"><defs><style>.cls-1{fill:#da9300;}.cls-2{fill:#ffcafd;}</style></defs><title>logo_negativo copy</title><path class="cls-1" d="M143.33,91.47v-8q0-1.63-2.5-2.12a23.85,23.85,0,0,0-3.75-.19h-7q-6,0-6,2.42V94h14.09Q143.33,94,143.33,91.47Zm4.56-.07q0,6.36-9.76,6.36H124v4.18a1.42,1.42,0,0,1-.92,1.52,6.45,6.45,0,0,1-1.93.15,1.48,1.48,0,0,1-1.67-1.67V83.5a5.19,5.19,0,0,1,3.55-5.18,17.9,17.9,0,0,1,6.77-.92H137q10.86,0,10.86,6Z"/><path class="cls-1" d="M179.79,91.47a6.72,6.72,0,0,1-.66,3.28q-1.78,3.19-10.75,3.19H151.91a1.48,1.48,0,0,1-1.65-1.69,3.53,3.53,0,0,1,.26-1.61,1.48,1.48,0,0,1,1.39-.62h16.47Q175,94,175,91.55V89.31q0-2.4-6.44-2.61l-7.9-.26-1.58-.06-2.48-.17a8.88,8.88,0,0,1-4.41-1.69,4.86,4.86,0,0,1-2-4v-2q0-4.56,5.05-6a41.84,41.84,0,0,1,8.86-.62q1.67,0,1.67,2.18a1.47,1.47,0,0,1-1,1.59,10.79,10.79,0,0,1-2,.09q-7.79,0-7.79,2.74v1.82q0,1.69,2.91,2.21a13.3,13.3,0,0,0,1.61.17q1.07,0,2.61,0h6.36a18,18,0,0,1,7.19,1.18q4.15,1.71,4.15,5.27Z"/><path class="cls-1" d="M210.92,96.24q0,1.69-2.1,1.69H192.1a18.85,18.85,0,0,1-6.94-.92,5.28,5.28,0,0,1-3.64-5.29V83.63q0-6.23,9.64-6.23h17.9q1.76,0,1.76,1.91t-1.76,1.91H191.48q-5.44,0-5.44,2.29v8q0,2.61,6.19,2.61h17Q210.92,94.15,210.92,96.24Z"/><path class="cls-1" d="M238.8,90.7c0-.2,0-.45,0-.75s0-.65,0-1,0-.75,0-1V87.1h-16a9,9,0,0,0-2.91.51q-1.95.66-1.95,1.73v2.59q0,1.14,2,1.73a8.6,8.6,0,0,0,3,.47H234a8.34,8.34,0,0,0,3.47-.49Q238.8,93,238.8,90.7Zm4.43,1.07q0,6.17-9.25,6.17h-11a13.5,13.5,0,0,1-6.14-1.31Q213.3,95,213.3,92V89.37a5.14,5.14,0,0,1,3.32-4.82,13.63,13.63,0,0,1,6.17-1.24h16q-.36-2.16-6.12-2.16l-.58,0-.75,0a.52.52,0,0,1-.22,0H230q-1.67,0-1.67-2.12A1.49,1.49,0,0,1,230,77.4a34.82,34.82,0,0,1,8.29.75q4.92,1.39,4.92,5.57Z"/><path class="cls-1" d="M251,96.24a1.49,1.49,0,0,1-1.67,1.69,6.45,6.45,0,0,1-1.93-.15,1.46,1.46,0,0,1-.92-1.54V73.53a1.48,1.48,0,0,1,1.67-1.67,8.42,8.42,0,0,1,1.95.13,1.42,1.42,0,0,1,.9,1.54Z"/><path class="cls-1" d="M277.6,86V83.44q0-2.31-9.18-2.31a46.88,46.88,0,0,0-7.43.39q-2.85.54-2.85,2.1V86ZM282,88q0,1.86-1.26,1.86H258.29V90q0,2.91,3.43,3.75a15.56,15.56,0,0,0,2.16.28q1.44.09,3.64.09,1.67,0,1.67,2.1a1.49,1.49,0,0,1-1.67,1.69q-2.27,0-3.73,0t-2.18-.11A10.76,10.76,0,0,1,256.12,96a5.7,5.7,0,0,1-2.5-4.58V83.89q0-3.56,3.85-5.27a16.52,16.52,0,0,1,7-1.24h8.44a13,13,0,0,1,5.89,1.18q3.23,1.5,3.23,4.52Z"/><path class="cls-1" d="M114.68,71.86a9.35,9.35,0,0,0-2.05.13,1.41,1.41,0,0,0-1,1.54V90.29q0,2.53-3,3.32a20,20,0,0,1-5,.41H97q-1.67,0-2.91-.11A15,15,0,0,1,92,93.59q-3-.84-3-3.32V74.86l-4.77,4.77v11a7.56,7.56,0,0,0,.71,3.58q2,3.77,12.06,3.77H98l1.5,0,1.5,0,1.09,0q14.24,0,14.24-7.43V73.53A1.48,1.48,0,0,0,114.68,71.86Z"/><path class="cls-2" d="M101.92,22.33c-5.61-5.87-20.08-1.8-36.68,9.08-3,1.92-4.72,3.08-7.92,5.43,3.32,2.36,5,3.63,8.2,6.36,3.3-2.89,4.93-4.27,8.09-6.88a59.78,59.78,0,0,0-7.45-5c13.65-8.19,25.25-10.89,30-5.91,4.6,4.82,1.72,15.7-6.44,28.41a56.09,56.09,0,0,0-5-6.84c-2.62,3.19-4,4.83-6.92,8.16,2.54,2.85,3.86,4.46,5.89,7.15a149.36,149.36,0,0,1-11,12.54c-2.31-2.47-3.85-4.08-6.62-6.93q-4.18,4.35-8.54,8.53c2.78,2.71,4.38,4.24,6.74,6.45a148.9,148.9,0,0,1-13.2,10.5c-2.2-1.68-3.75-3-6.29-5.25-3.34,2.91-5,4.3-8.17,6.92a56.17,56.17,0,0,0,5.43,4.09c-12.83,7.32-23.6,9.57-28.13,4.82C9.08,98.88,12.55,87,21.77,73.43c-10.82,15.43-15.07,29-9.64,34.66,8.12,8.5,34.8-3.81,59.59-27.5S110,30.82,101.92,22.33ZM44.8,67.84c-3.29,3.39-4.89,5.07-8,8.36,2.92,3.24,4.51,4.87,7.67,7.88,3.32-3.07,5-4.68,8.43-8C49.67,72.87,48,71.16,44.8,67.84Zm21-4.55c3.31-3.42,4.92-5.11,8-8.43-3-3.17-4.63-4.76-7.87-7.68-3.29,3.06-5,4.66-8.37,7.95C60.84,58.3,62.55,60,65.77,63.29ZM26,83.92c2.61-3.16,4-4.78,6.89-8.08a103.3,103.3,0,0,1-6.36-8.21C24,71,22.88,72.7,20.76,76A60.86,60.86,0,0,0,26,83.92ZM36.83,55.1c2.95,3.2,4.48,4.84,7.65,8.14q4.14-4.3,8.44-8.44c-3.3-3.17-4.93-4.7-8.13-7.65C41.51,50.17,39.85,51.82,36.83,55.1ZM48.16,19.64c-3.32-2.37-5-3.47-8.26-5.51A58,58,0,0,0,32,19.56c3.06,2.52,4.64,3.86,7.85,6.65A98.41,98.41,0,0,1,48.16,19.64Z"/><path class="cls-1" d="M28.09,65.52c2.47,3.32,3.79,5,6.61,8.25,3-3.33,4.52-5,7.74-8.41-3.11-3.31-4.61-5-7.47-8.2C32,60.45,30.65,62.14,28.09,65.52Zm40.07.24c2.76,2.88,4.27,4.49,6.55,7C77.33,70,79.78,67.17,82,64.4c-2.09-2.66-3.46-4.28-6.05-7.15C73,60.61,71.42,62.32,68.16,65.75ZM50.37,8.36c3.31,1.9,5,2.94,8.31,5.19,3.38-2.34,5.09-3.41,8.47-5.37a70,70,0,0,0-8.33-3.83A66.55,66.55,0,0,0,50.37,8.36ZM42.4,45c-3.16-2.88-4.71-4.26-7.7-6.89A54.69,54.69,0,0,0,27.76,45c2.63,3,4,4.54,6.89,7.7A96.85,96.85,0,0,1,42.4,45ZM15.58,65.26a69.4,69.4,0,0,0,3.83,8.34c2-3.38,3-5.09,5.37-8.47-2.25-3.33-3.29-5-5.19-8.31A66,66,0,0,0,15.58,65.26ZM63.3,29.74A70,70,0,0,0,55,25.91a66.71,66.71,0,0,0-8.45,4c3.3,1.9,5,2.94,8.31,5.19C58.21,32.77,59.92,31.7,63.3,29.74ZM46.9,86.29c2.6,2.35,4.17,3.7,6.42,5.48,2.91-2.14,5.86-4.48,8.8-7-2.35-2.13-4-3.64-6.71-6.29C52,81.74,50.27,83.3,46.9,86.29ZM55.4,57.2q-4.31,4.21-8.52,8.52c3.22,3.32,4.93,5,8.22,8.29q4.34-4.24,8.59-8.58C60.43,62.13,58.72,60.43,55.4,57.2Zm20.27-4.4c3-3.27,4.46-4.88,7.2-8a56.86,56.86,0,0,0-7-6.71c-3.08,2.74-4.68,4.18-7.93,7.18A101.6,101.6,0,0,1,75.66,52.8ZM34.95,78.25c-3,3.25-4.45,4.84-7.18,7.92a57.13,57.13,0,0,0,6.7,7c3.1-2.74,4.71-4.18,8-7.19A101.88,101.88,0,0,1,34.95,78.25Z"/></svg>