<svg id="Capa_2" data-name="Capa 2" xmlns="http://www.w3.org/2000/svg" viewBox="0 0 65.51 61.22"><defs><style>.cls-1{fill:none;stroke:#002756;stroke-miterlimit:10;stroke-width:6px;}.cls-2{fill:#f0cf39;}</style></defs><title>Mesa de trabajo 1</title><line class="cls-1" x1="6.6" y1="18.28" x2="17.07" y2="54.76"/><line class="cls-1" x1="20.55" y1="14.28" x2="31.01" y2="50.76"/><line class="cls-1" x1="34.12" y1="10.39" x2="44.58" y2="46.86"/><line class="cls-1" x1="48.01" y1="6.41" x2="58.47" y2="42.88"/><line class="cls-1" x1="46.02" y1="7.31" x2="9.54" y2="17.74"/><line class="cls-1" x1="49.63" y1="19.94" x2="13.14" y2="30.37"/><line class="cls-1" x1="53" y1="31.74" x2="16.52" y2="42.18"/><line class="cls-1" x1="56.34" y1="43.43" x2="19.86" y2="53.86"/><rect class="cls-2" x="1.9" y="13.58" width="9.4" height="9.4" transform="translate(-4.79 2.53) rotate(-16.01)"/><rect class="cls-2" x="15.8" y="9.6" width="9.4" height="9.4" transform="matrix(0.96, -0.28, 0.28, 0.96, -3.15, 6.21)"/><rect class="cls-2" x="29.47" y="5.68" width="9.4" height="9.4" transform="translate(-1.54 9.82) rotate(-16.01)"/><rect class="cls-2" x="43.36" y="1.69" width="9.4" height="9.4" transform="translate(0.1 13.5) rotate(-16.01)"/><rect class="cls-2" x="5.39" y="25.93" width="9.4" height="9.4" transform="matrix(0.96, -0.28, 0.28, 0.96, -8.06, 3.97)"/><rect class="cls-2" x="19.28" y="21.95" width="9.4" height="9.4" transform="translate(-6.42 7.65) rotate(-16.01)"/><rect class="cls-2" x="32.96" y="18.03" width="9.4" height="9.4" transform="translate(-4.81 11.26) rotate(-16.01)"/><rect class="cls-2" x="46.85" y="14.04" width="9.4" height="9.4" transform="translate(-3.17 14.94) rotate(-16.01)"/><rect class="cls-2" x="8.88" y="37.71" width="9.4" height="9.4" transform="translate(-11.17 5.39) rotate(-16.01)"/><rect class="cls-2" x="22.77" y="33.72" width="9.4" height="9.4" transform="translate(-9.53 9.07) rotate(-16.01)"/><rect class="cls-2" x="36.45" y="29.8" width="9.4" height="9.4" transform="translate(-7.92 12.68) rotate(-16.01)"/><rect class="cls-2" x="50.34" y="25.82" width="9.4" height="9.4" transform="translate(-6.28 16.36) rotate(-16.01)"/><rect class="cls-2" x="12.37" y="50.06" width="9.4" height="9.4" transform="translate(-14.44 6.83) rotate(-16.01)"/><rect class="cls-2" x="26.26" y="46.07" width="9.4" height="9.4" transform="translate(-12.8 10.5) rotate(-16.01)"/><rect class="cls-2" x="39.94" y="42.15" width="9.4" height="9.4" transform="translate(-11.19 14.12) rotate(-16.01)"/><rect class="cls-2" x="53.83" y="38.17" width="9.4" height="9.4" transform="matrix(0.96, -0.28, 0.28, 0.96, -9.55, 17.8)"/></svg>